 <svg xmlns="http://www.w3.org/2000/svg" width="640" height="640" viewBox="-30 -30 700 700" fill="#4b0082">
 	<rect width="100%" height="100%" fill="aliceblue" x="-30" y="-30"/>
 	<g>
		<path d="m 621.52227,168.55736 c 0,0 -29.51565,230.95188 -209.31002,227.68021 0,0 36.08174,-14.72616 30.44233,-139.69775 l 178.86769,-87.98246"/>
		<path d="m 261.06728,424.47514 112.0243,8.31448 c 0,0 -42.72092,93.75082 -96.0195,79.07965 C 223.7735,497.1981 223.7735,497.1981 223.7735,497.1981 c 0,0 24.21228,-16.2911 37.29378,-72.72296 z"/>
		<path d="m 293.55636,329.87908 123.61052,-60.80224 -17.70058,97.70723 c 0,0 -9.46975,35.6231 -67.16266,27.99942 -57.69291,-7.62367 -57.69291,-7.62367 -57.69291,-7.62367 0,0 14.96101,-14.28691 18.94563,-57.28074 z"/>
		<path d="m 404.31064,435.10677 126.19393,9.36626 c 0,0 -71.02006,147.81685 -191.74592,85.89322 0,0 56.33804,-18.34943 65.55199,-95.25948 z"/>
		<path d="m 210.4056,518.86082 101.99747,40.63649 -21.726,25.99819 c 0,0 -36.64584,41.40578 -146.85318,5.58149 0,0 41.67145,-15.87274 66.58171,-72.21617"/>
		<path d="m 341.40122,571.05034 62.38471,24.85453 c 0,0 -49.51881,41.08994 -135.65584,34.70483 0,0 64.01694,-40.86374 73.27113,-59.55936"/>
		<path d="M 639.13879,0.752539 116.04981,291.05902 c 0,0 102.7471,210.57275 -115.615347,348.086 0,0 202.053466,-21.52217 273.529026,-319.90087 L 580.3082,163.27724 c 0,0 60.41409,-36.57949 58.83059,-162.524701"/>
	</g>
</svg>
